<svg width="35" height="35" viewBox="0 0 35 35" fill="none" xmlns="http://www.w3.org/2000/svg">
<circle cx="17.5" cy="17.5" r="17.5" fill="white"/>
<path d="M18.987 16.625C19.024 16.625 19.0601 16.6141 19.0909 16.5937C19.1217 16.5733 19.1457 16.5442 19.16 16.5102C19.1744 16.4761 19.1783 16.4386 19.1714 16.4023C19.1644 16.366 19.147 16.3326 19.1211 16.3062L15.4461 12.5694C15.42 12.5428 15.3866 12.5247 15.3501 12.5172C15.3136 12.5098 15.2758 12.5133 15.2413 12.5275C15.2069 12.5416 15.1775 12.5656 15.1567 12.5966C15.136 12.6275 15.125 12.6639 15.125 12.7011V16.0625C15.125 16.2117 15.1843 16.3547 15.2898 16.4602C15.3952 16.5657 15.5383 16.625 15.6875 16.625H18.987Z" fill="#121A28"/>
<path d="M14.2344 17.5156C14.0418 17.3257 13.8889 17.0995 13.7843 16.85C13.6797 16.6006 13.6255 16.333 13.625 16.0625V11.75H10.25C9.45507 11.7523 8.69338 12.0692 8.13128 12.6313C7.56917 13.1934 7.25235 13.9551 7.25 14.75V25.25C7.25 26.0456 7.56607 26.8087 8.12868 27.3713C8.69129 27.9339 9.45435 28.25 10.25 28.25H17C17.7956 28.25 18.5587 27.9339 19.1213 27.3713C19.6839 26.8087 20 26.0456 20 25.25V18.125H15.6875C15.417 18.1246 15.1493 18.0706 14.8999 17.966C14.6504 17.8613 14.4242 17.7083 14.2344 17.5156Z" fill="#121A28"/>
<path d="M22.4375 10.625H25.737C25.774 10.625 25.8101 10.6141 25.8409 10.5937C25.8717 10.5733 25.8957 10.5442 25.91 10.5102C25.9244 10.4761 25.9283 10.4386 25.9214 10.4023C25.9144 10.366 25.897 10.3326 25.8711 10.3062L22.1961 6.56936C22.17 6.54285 22.1366 6.5247 22.1001 6.51724C22.0636 6.50977 22.0258 6.51333 21.9913 6.52746C21.9569 6.54158 21.9275 6.56564 21.9067 6.59656C21.886 6.62748 21.875 6.66386 21.875 6.70108V10.0625C21.875 10.2117 21.9343 10.3547 22.0398 10.4602C22.1452 10.5657 22.2883 10.625 22.4375 10.625Z" fill="#121A28"/>
<path d="M22.4375 12.125C21.8918 12.1208 21.3696 11.9022 20.9837 11.5163C20.5978 11.1304 20.3792 10.6082 20.375 10.0625V5.75H15.3125C14.5668 5.75087 13.852 6.04746 13.3247 6.57472C12.7975 7.10198 12.5009 7.81685 12.5 8.5625V10.25H14.4744C14.7264 10.251 14.9757 10.3018 15.208 10.3995C15.4403 10.4971 15.6511 10.6397 15.8281 10.8191L20.945 16.0222C21.302 16.3844 21.5013 16.873 21.4995 17.3816V23.75H23.9863C25.5102 23.75 26.7495 22.4881 26.7495 20.9375V12.125H22.4375Z" fill="#121A28"/>
</svg>
