<svg width="36" height="36" viewBox="0 0 36 36" fill="none" xmlns="http://www.w3.org/2000/svg">
<path d="M17.9375 0C8.03184 0 0 8.03184 0 17.9375C0 27.8432 8.03184 35.875 17.9375 35.875C27.8432 35.875 35.875 27.8432 35.875 17.9375C35.875 8.03184 27.8432 0 17.9375 0ZM28.1875 10.1579L26.5539 11.7234C26.4098 11.8315 26.3417 12.0077 26.3697 12.1799V23.6991C26.3417 23.8753 26.4098 24.0515 26.5539 24.1556L28.1555 25.7211V26.0694H20.1156V25.7371L21.7692 24.1315C21.9334 23.9674 21.9334 23.9193 21.9334 23.6751V14.354L17.3289 26.0294H16.7083L11.3511 14.354V22.1816C11.303 22.51 11.4191 22.8423 11.6514 23.0785L13.8055 25.6851V26.0334H7.6875V25.6851L9.8416 23.0785C9.95509 22.9613 10.0396 22.8191 10.0882 22.6634C10.1369 22.5076 10.1484 22.3426 10.1219 22.1816V13.1328C10.1499 12.8806 10.0538 12.6363 9.86162 12.4642L7.94775 10.1579V9.80957H13.8936L18.482 19.8794L22.522 9.81758H28.1875V10.1579Z" fill="#F8F8F8"/>
</svg>
