<svg width="35" height="36" viewBox="0 0 35 36" fill="none" xmlns="http://www.w3.org/2000/svg">
<g clip-path="url(#clip0_7_1376)">
<path d="M17.5 0.5C7.83494 0.5 0 8.33494 0 18C0 27.6651 7.83494 35.5 17.5 35.5C27.1651 35.5 35 27.6651 35 18C35 8.33494 27.1651 0.5 17.5 0.5Z" fill="#40B3E0"/>
<path d="M26.0153 10.5665L22.8895 26.3259C22.8895 26.3259 22.4524 27.4189 21.2502 26.8943L14.0372 21.3643L11.4144 20.0966L6.99919 18.6102C6.99919 18.6102 6.32161 18.3699 6.25598 17.8453C6.19036 17.3207 7.02106 17.0366 7.02106 17.0366L24.5725 10.1514C24.5725 10.1514 26.0151 9.51759 26.0151 10.5668" fill="white"/>
<path d="M13.4829 26.1488C13.4829 26.1488 13.2724 26.1291 13.0099 25.2984C12.7478 24.4679 11.4144 20.0964 11.4144 20.0964L22.0153 13.3644C22.0153 13.3644 22.6274 12.9928 22.6055 13.3644C22.6055 13.3644 22.7147 13.43 22.3867 13.736C22.059 14.0421 14.0592 21.2331 14.0592 21.2331" fill="#D2E5F1"/>
<path d="M16.8029 23.4844L13.95 26.0856C13.95 26.0856 13.7268 26.2549 13.4829 26.1488L14.0293 21.3171" fill="#B5CFE4"/>
</g>
<defs>
<clipPath id="clip0_7_1376">
<rect width="35" height="35" fill="white" transform="translate(0 0.5)"/>
</clipPath>
</defs>
</svg>
