<svg width="35" height="36" viewBox="0 0 35 36" fill="none" xmlns="http://www.w3.org/2000/svg">
<circle cx="17.5" cy="18" r="17.5" fill="#40B3E0"/>
<g clip-path="url(#clip0_7_1280)">
<path fill-rule="evenodd" clip-rule="evenodd" d="M28.3333 11.3853C27.5208 11.7396 26.6603 11.9718 25.7799 12.0743C26.7042 11.5325 27.3991 10.6719 27.7342 9.65418C26.8762 10.1547 25.925 10.5198 24.9121 10.7158C24.4932 10.2776 23.9895 9.92912 23.4318 9.6915C22.874 9.45387 22.2738 9.33208 21.6675 9.33351C19.2127 9.33351 17.2226 11.2922 17.2226 13.7102C17.2226 14.0525 17.2616 14.3862 17.3375 14.7068C15.5765 14.6232 13.8523 14.1735 12.2749 13.3864C10.6974 12.5993 9.30134 11.492 8.17571 10.1352C7.78093 10.8008 7.57285 11.5605 7.57338 12.3343C7.57338 13.8532 8.35879 15.1922 9.55154 15.9765C8.84658 15.9549 8.15662 15.7675 7.53763 15.4294V15.4836C7.53763 17.6037 9.06946 19.3728 11.1018 19.7747C10.4471 19.9494 9.76151 19.9753 9.09546 19.8505C9.66096 21.5882 11.3022 22.8535 13.2479 22.8893C11.6662 24.1085 9.72428 24.7678 7.72721 24.7634C7.37276 24.7631 7.01863 24.7421 6.66663 24.7006C8.7058 25.9885 11.069 26.6704 13.4808 26.6668C21.6567 26.6668 26.1276 19.9989 26.1276 14.2172C26.1276 14.0276 26.1233 13.838 26.1146 13.6506C26.9832 13.0341 27.7346 12.2673 28.3333 11.3864V11.3853Z" fill="white"/>
</g>
<defs>
<clipPath id="clip0_7_1280">
<rect width="21.6667" height="21.6667" fill="white" transform="translate(6.66663 7.16675)"/>
</clipPath>
</defs>
</svg>
